{"title":"Harry Potter And The Deathly Hallows Part 1 2010 720p BRRip MukE","uid":6291322,"size":897395171,"categoryP":"video","categoryS":"hd___movies","magnet":"?xt=urn:btih:e554d806df2aca4b2c76c4b9ec3e63a5c9ca3656&amp;dn=Harry+Potter+And+The+Deathly+Hallows+Part+1+2010+720p+BRRip+MukE&amp;tr=udp%3A%2F%2Ftracker.openbittorrent.com%3A80&amp;tr=udp%3A%2F%2Fopen.demonii.com%3A1337&amp;tr=udp%3A%2F%2Ftracker.coppersurfer.tk%3A6969&amp;tr=udp%3A%2F%2Fexodus.desync.com%3A6969","seeders":0,"leechers":1,"uploader":"muk0690","files":7,"time":1301823930,"description":"Thanks to PureTorrents for providing the seedbox.\n\n\n\nMovie Info : http://www.imdb.com/title/tt0926084/\n\nWatch streaming (Just like youtube. You need not download): http://puretorrents.cc/cinema.php\n\nGeneral\nComplete name                    : Harry Potter And The Deathly Hallows Part 1 2010 720p BRRip MukE [A Pure Release].mp4\nFormat                           : MPEG-4\nFormat profile                   : Base Media\nCodec ID                         : isom\nFile size                        : 851 MiB\nDuration                         : 2h 18mn\nOverall bit rate                 : 861 Kbps\n\nVideo\nID                               : 1\nFormat                           : AVC\nFormat/Info                      : Advanced Video Codec\nFormat profile                   : &lt;a class=&quot;__cf_email__&quot; href=&quot;/cdn-cgi/l/email-protection&quot; data-cfemail=&quot;8bc3e2ece3cbc7bfa5b9&quot;&gt;[email&amp;#160;protected]&lt;/a&gt;&lt;script cf-hash='f9e31' type=&quot;text/javascript&quot;&gt;\n/* &lt;![CDATA[ */!function(){try{var t=&quot;currentScript&quot;in document?document.currentScript:function(){for(var t=document.getElementsByTagName(&quot;script&quot;),e=t.length;e--;)if(t[e].getAttribute(&quot;cf-hash&quot;))return t[e]}();if(t&amp;&amp;t.previousSibling){var e,r,n,i,c=t.previousSibling,a=c.getAttribute(&quot;data-cfemail&quot;);if(a){for(e=&quot;&quot;,r=parseInt(a.substr(0,2),16),n=2;a.length-n;n+=2)i=parseInt(a.substr(n,2),16)^r,e+=String.fromCharCode(i);e=document.createTextNode(e),c.parentNode.replaceChild(e,c)}}}catch(u){}}();/* ]]&gt; */&lt;/script&gt;\nFormat settings, CABAC           : Yes\nFormat settings, ReFrames        : 3 frames\nCodec ID                         : avc1\nCodec ID/Info                    : Advanced Video Coding\nDuration                         : 2h 18mn\nBit rate mode                    : Variable\nBit rate                         : 794 Kbps\nMaximum bit rate                 : 9 891 Kbps\nWidth                            : 1 280 pixels\nHeight                           : 536 pixels\nDisplay aspect ratio             : 2.35:1\nFrame rate mode                  : Constant\nFrame rate                       : 23.976 fps\nColor space                      : YUV\nChroma subsampling               : 4:2:0\nBit depth                        : 8 bits\nScan type                        : Progressive\nBits/(Pixel*Frame)               : 0.048\nStream size                      : 784 MiB (92%)\nWriting library                  : x264 core 114 r1913 5fd3dce\n\nAudio\nID                               : 2\nFormat                           : AAC\nFormat/Info                      : Advanced Audio Codec\nFormat version                   : Version 4\nFormat profile                   : LC\nFormat settings, SBR             : No\nCodec ID                         : 40\nDuration                         : 2h 18mn\nBit rate mode                    : Variable\nBit rate                         : 64.0 Kbps\nMaximum bit rate                 : 108 Kbps\nChannel(s)                       : 2 channels\nChannel positions                : Front: L R\nSampling rate                    : 48.0 KHz\nCompression mode                 : Lossy\nStream size                      : 63.2 MiB (7%)\nLanguage                         : English\n\nSubtitles: English\n\nScreenshots:\n &lt;a href=&quot;\nhttp://www.pix2links.com/images/53003120217422833487.png&quot; rel=&quot;nofollow&quot; target=&quot;_NEW&quot;&gt;\nhttp://www.pix2links.com/images/53003120217422833487.png&lt;/a&gt; &lt;a href=&quot;\nhttp://www.pix2links.com/images/05058545195516665745.png&quot; rel=&quot;nofollow&quot; target=&quot;_NEW&quot;&gt;\nhttp://www.pix2links.com/images/05058545195516665745.png&lt;/a&gt;\n\nFor more screenshots and direct download: http://puretorrents.cc/torrents-details.php?id=6428","torrent":{"xt":"urn:btih:e554d806df2aca4b2c76c4b9ec3e63a5c9ca3656","amp;dn":"Harry+Potter+And+The+Deathly+Hallows+Part+1+2010+720p+BRRip+MukE","amp;tr":["udp%3A%2F%2Ftracker.openbittorrent.com%3A80","udp%3A%2F%2Fopen.demonii.com%3A1337","udp%3A%2F%2Ftracker.coppersurfer.tk%3A6969","udp%3A%2F%2Fexodus.desync.com%3A6969"],"infoHash":"e554d806df2aca4b2c76c4b9ec3e63a5c9ca3656","infoHashBuffer":{"type":"Buffer","data":[229,84,216,6,223,42,202,75,44,118,196,185,236,62,99,165,201,202,54,86]},"announce":[],"urlList":[]}}